<svg xmlns="http://www.w3.org/2000/svg" width="40" height="40" viewBox="0 0 40 40"><rect width="40" height="40" fill="#e50025" opacity="0"/><path d="M23.821,10.116a7.653,7.653,0,0,1,6.051,6.04M23.821,4A13.775,13.775,0,0,1,36,16.141m-2,12.32v4.516A3.013,3.013,0,0,1,30.994,36c-.095,0-.188,0-.283-.012a29.891,29.891,0,0,1-13.018-4.621,29.382,29.382,0,0,1-9.05-9.033A29.76,29.76,0,0,1,4.012,9.282a3.015,3.015,0,0,1,2.733-3.27c.089-.007.18-.012.269-.012h4.525a3.014,3.014,0,0,1,3.017,2.59,19.229,19.229,0,0,0,1.056,4.23A3,3,0,0,1,14.933,16l-1.916,1.912a24.113,24.113,0,0,0,9.051,9.033l1.915-1.912a3.02,3.02,0,0,1,3.183-.678,19.344,19.344,0,0,0,4.239,1.054A3.013,3.013,0,0,1,34,28.461Z" fill="none" stroke="#111" stroke-linecap="round" stroke-linejoin="round" stroke-width="2"/></svg>