<svg xmlns="http://www.w3.org/2000/svg" width="24" height="26" viewBox="0 0 24 26"><g transform="translate(-2 -1)"><rect width="24" height="24" transform="translate(2 2)" fill="#e50025" opacity="0"/><path d="M26,12.6H4M19.89,3V7.8M10.112,3V7.8m1.222,12,2.443,2.4,5.5-5.4M9.867,27H20.134c2.053,0,3.08,0,3.864-.392a3.638,3.638,0,0,0,1.6-1.573c.4-.771.4-1.779.4-3.795V11.16c0-2.016,0-3.024-.4-3.795A3.638,3.638,0,0,0,24,5.792C23.214,5.4,22.187,5.4,20.134,5.4H9.867c-2.053,0-3.08,0-3.865.392A3.642,3.642,0,0,0,4.4,7.365C4,8.136,4,9.144,4,11.16V21.24c0,2.016,0,3.024.4,3.795A3.642,3.642,0,0,0,6,26.608C6.787,27,7.814,27,9.867,27Z" transform="translate(-1 -1)" fill="none" stroke="#fff" stroke-linecap="round" stroke-linejoin="round" stroke-width="2"/></g></svg>