<svg xmlns="http://www.w3.org/2000/svg" xmlns:xlink="http://www.w3.org/1999/xlink" width="40" height="40" viewBox="0 0 40 40"><defs><clipPath id="a"><rect width="32" height="32" transform="translate(0.47 0.471)" fill="none"/></clipPath></defs><g transform="translate(-1676 -172)"><rect width="40" height="40" transform="translate(1676 172)" fill="#d91f29" opacity="0"/><g transform="translate(1679.529 175.529)"><g clip-path="url(#a)"><path d="M31.3,31.857a4.69,4.69,0,0,0,1.639-3.54V23.354a3.3,3.3,0,0,0-2.322-3.148L24.892,18.44A3.291,3.291,0,0,0,21.885,19L19.6,20.8a30.457,30.457,0,0,1-4.05-3.4,30.243,30.243,0,0,1-3.4-4.052l1.8-2.284A3.292,3.292,0,0,0,14.5,8.049L12.734,2.322A3.292,3.292,0,0,0,9.586,0H4.624a4.687,4.687,0,0,0-3.54,1.639A4.333,4.333,0,0,0,.007,4.709a30.067,30.067,0,0,0,8.78,19.445,30.056,30.056,0,0,0,19.445,8.779,4.332,4.332,0,0,0,3.07-1.076M9.557,11.305a3.3,3.3,0,0,0-.109,3.927,33.574,33.574,0,0,0,3.772,4.49,33.573,33.573,0,0,0,4.49,3.772,3.3,3.3,0,0,0,3.927-.109l2.284-1.8,5.727,1.766v4.954a1.4,1.4,0,0,1-.488,1.048,1.053,1.053,0,0,1-.723.29,26.765,26.765,0,0,1-17.32-7.82A26.765,26.765,0,0,1,3.3,4.5a1.039,1.039,0,0,1,.29-.721,1.393,1.393,0,0,1,1.048-.488H9.586l1.767,5.727Z" transform="translate(0)" fill="#222" fill-rule="evenodd"/></g></g></g></svg>