<svg xmlns="http://www.w3.org/2000/svg" xmlns:xlink="http://www.w3.org/1999/xlink" width="40" height="40" viewBox="0 0 40 40"><defs><clipPath id="a"><rect width="34" height="34" transform="translate(-0.2 -0.2)" fill="none"/></clipPath></defs><g transform="translate(-1676 -172)"><rect width="40" height="40" transform="translate(1676 172)" fill="#d91f29" opacity="0"/><g transform="translate(1679.2 175.2)" clip-path="url(#a)"><path d="M16.965,8.492A4.532,4.532,0,1,1,12.433,4a4.512,4.512,0,0,1,4.532,4.492m-3.021,0a1.511,1.511,0,1,1-1.511-1.5,1.5,1.5,0,0,1,1.511,1.5" transform="translate(4.365 2.319)" fill="#222" fill-rule="evenodd"/><path d="M16.351,25.23c3.038-2.953,8.7-9.2,8.7-14.749a10.575,10.575,0,0,0-21.15,0c0,5.549,5.662,11.8,8.7,14.749a2.669,2.669,0,0,0,3.75,0m2.988-8.081c1.694-2.475,2.691-4.8,2.691-6.668a7.554,7.554,0,0,0-15.107,0c0,1.863,1,4.193,2.691,6.668a40.342,40.342,0,0,0,4.863,5.708,40.342,40.342,0,0,0,4.863-5.708" transform="translate(2.322 0.329)" fill="#222" fill-rule="evenodd"/><path d="M7.236,14.471a1.519,1.519,0,0,0-2.376.31L.308,22.6A2.246,2.246,0,0,0,2.27,25.964h28.4A2.247,2.247,0,0,0,32.634,22.6l-4.555-7.818a1.518,1.518,0,0,0-2.376-.31,1.488,1.488,0,0,0-.24,1.807l3.9,6.695H3.579l3.9-6.692a1.492,1.492,0,0,0-.24-1.807" transform="translate(0.33 7.306)" fill="#222"/></g></g></svg>