<svg xmlns="http://www.w3.org/2000/svg" width="40" height="40" viewBox="0 0 40 40"><rect width="40" height="40" fill="#e50025" opacity="0"/><g transform="translate(0 1)"><path d="M31,19c0-2.337,2.239-4.23,5-4.23V8H4v6.77c2.761,0,5,1.894,5,4.23s-2.239,4.23-5,4.23V30H36V23.23C33.239,23.23,31,21.337,31,19Z" fill="none" stroke="#111" stroke-linecap="round" stroke-linejoin="round" stroke-width="2"/><path d="M15,13a1.068,1.068,0,0,1-1-1.125V8.125a1.007,1.007,0,1,1,2,0v3.75A1.068,1.068,0,0,1,15,13" fill="#111"/><path d="M15,24a1.09,1.09,0,0,1-1-1.161V17.161A1.09,1.09,0,0,1,15,16a1.09,1.09,0,0,1,1,1.161v5.678A1.09,1.09,0,0,1,15,24" transform="translate(0 -1)" fill="#111"/><path d="M15,33a1.068,1.068,0,0,1-1-1.125v-3.75a1.007,1.007,0,1,1,2,0v3.75A1.068,1.068,0,0,1,15,33" transform="translate(0 -2)" fill="#111"/></g></svg>