<svg xmlns="http://www.w3.org/2000/svg" xmlns:xlink="http://www.w3.org/1999/xlink" width="20" height="12" viewBox="0 0 20 12"><defs><clipPath id="a"><rect width="20" height="12" transform="translate(0 0)" fill="none"/></clipPath></defs><g transform="translate(20 12) rotate(180)" clip-path="url(#a)"><path d="M6,10.065,3.414,7.134H19A1.073,1.073,0,0,0,20,6a1.073,1.073,0,0,0-1-1.134H3.414L6,1.935a1.242,1.242,0,0,0,0-1.6.92.92,0,0,0-1.414,0L.293,5.2a1.242,1.242,0,0,0,0,1.6l4.293,4.866a.918.918,0,0,0,1.414,0,1.242,1.242,0,0,0,0-1.6" transform="translate(0 0)" fill="#fff"/></g></svg>